# xmcd CD database file
#
# Track frame offsets:
#	150
#	13938
#	27675
#	42061
#	57559
#	72684
#	88754
#	102102
#	116460
#	132626
#	147474
#	161760
#	178162
#	191372
#	206859
#	221791
#	237414
#	249774
#	262870
#	273703
#	285257
#	298932
#	312899
#	327527
#	342965
#
# Disc length: 4762 seconds
#
# Revision: 1
# Processed by: cddbd v1.5.1PL0 Copyright (c) Steve Scherf et al.
# Submitted via: CDex 1.51
#
DISCID=98129819
DTITLE=Roy Eldridge - Disc Three: King David in Paris... and Stockholm, too
DYEAR=1950
DGENRE=Jazz
TTITLE0=King David
TTITLE1=It don't mean a thing (if it ain't got that swing)
TTITLE2=Wrap your troubles in dreams
TTITLE3=Undecided
TTITLE4=Ain't no flies on me
TTITLE5=The man I Love
TTITLE6=Easter parade
TTITLE7=Wild driver
TTITLE8=If I had you
TTITLE9=Nuts
TTITLE10=Someone to watch over me
TTITLE11=Goliath bounce
TTITLE12=I remember Harlem
TTITLE13=Baby, don't do me like this
TTITLE14=L'isle Adam
TTITLE15=(What did I do to be be so) Black and blue?
TTITLE16=Echoes of Harlem
TTITLE17=Schooldays
TTITLE18=Saturday night fish fry, pt. 1
TTITLE19=Saturday night fish fry, pt. 2
TTITLE20=The heat's on
TTITLE21=No rolling blues
TTITLE22=They raided the joint
TTITLE23=Estrad swing (Roy's got rhythm)
TTITLE24=Hoppin' John
EXTD=YEAR: 1950
EXTT0=
EXTT1=
EXTT2=
EXTT3=
EXTT4=
EXTT5=
EXTT6=
EXTT7=
EXTT8=
EXTT9=
EXTT10=
EXTT11=
EXTT12=
EXTT13=
EXTT14=
EXTT15=
EXTT16=
EXTT17=
EXTT18=
EXTT19=
EXTT20=
EXTT21=
EXTT22=
EXTT23=
EXTT24=
PLAYORDER=
